<svg width="1024" height="1024" viewBox="0 0 1024 1024" fill="none" xmlns="http://www.w3.org/2000/svg">
<path d="M117.89 688.833C182.998 688.833 235.779 636.051 235.779 570.941C235.779 505.831 182.998 453.049 117.89 453.049C52.7809 453.049 0.000146749 505.814 0.000146749 570.925C0.000146749 636.035 52.7809 688.817 117.89 688.817V688.833Z" fill="#31BAFF"/>
<path d="M117.889 570.951C182.998 570.951 235.779 518.173 235.779 453.067C235.779 387.961 182.998 335.167 117.889 335.167C52.7808 335.167 5.43296e-05 387.945 5.43296e-05 453.051C5.43296e-05 518.157 52.7808 570.935 117.889 570.935V570.951Z" fill="url(#paint0_radial_9_8794)"/>
<path d="M800.191 654.677V481.744C800.191 479.111 798.057 476.977 795.425 476.977H751.042C748.41 476.977 746.276 479.111 746.276 481.744V654.677C746.276 657.309 748.41 659.443 751.042 659.443H795.425C798.057 659.443 800.191 657.309 800.191 654.677Z" fill="black"/>
<path d="M1018.25 654.677V481.744C1018.25 479.111 1016.12 476.977 1013.49 476.977H969.102C966.47 476.977 964.336 479.111 964.336 481.744V654.677C964.336 657.309 966.47 659.443 969.102 659.443H1013.49C1016.12 659.443 1018.25 657.309 1018.25 654.677Z" fill="black"/>
<path d="M623.793 468.263C656.113 468.263 680.895 477.995 697.005 497.506C712.986 516.875 715.635 540.242 715.635 552.319V654.67C715.635 657.302 713.501 659.436 710.869 659.436H665.987C663.355 659.436 661.221 657.302 661.221 654.67V554.958L661.21 553.93C660.727 532.43 645.096 517.085 623.733 517.085C602.04 517.085 586.485 532.911 586.485 554.958V654.67C586.485 657.302 584.351 659.436 581.719 659.436H536.959C534.326 659.436 532.192 657.302 532.192 654.67V552.319L532.202 551.155C532.384 538.795 535.095 516.274 550.58 497.506C566.662 477.962 591.478 468.263 623.793 468.263Z" fill="black"/>
<path d="M411.388 668.132C379.068 668.132 354.286 658.4 338.177 638.888C322.196 619.52 319.547 596.153 319.546 584.075V481.725C319.546 479.092 321.68 476.958 324.313 476.958H369.194C371.827 476.958 373.961 479.092 373.961 481.725V581.436L373.972 582.465C374.455 603.965 390.085 619.309 411.448 619.31C433.142 619.31 448.696 603.484 448.696 581.436V481.725C448.696 479.092 450.83 476.958 453.463 476.958H498.223C500.855 476.958 502.989 479.092 502.989 481.725V584.075L502.98 585.239C502.798 597.6 500.087 620.121 484.602 638.888C468.519 658.432 443.704 668.132 411.388 668.132Z" fill="black"/>
<path d="M881.057 466.457C881.057 455.599 889.86 446.804 900.729 446.804H922.303C924.932 446.804 927.063 444.673 927.063 442.045V401.865C927.063 399.236 924.932 397.105 922.303 397.105H898.976C861.54 397.105 831.194 427.423 831.194 464.823V654.686C831.194 657.314 833.325 659.445 835.953 659.445H881.868C884.496 659.445 886.627 657.314 886.627 654.686V522.475H937.301C939.93 522.475 942.06 520.344 942.06 517.715V482.169C942.06 479.541 939.93 477.41 937.301 477.41H881.057V466.496V466.457Z" fill="black"/>
<path d="M805.945 426.664C805.945 444.729 791.301 459.373 773.237 459.373C755.173 459.373 740.529 444.729 740.529 426.664C740.529 408.599 755.173 393.955 773.237 393.955C791.301 393.955 805.945 408.599 805.945 426.664Z" fill="black"/>
<path d="M1024 426.664C1024 444.729 1009.36 459.373 991.292 459.373C973.227 459.373 958.583 444.729 958.583 426.664C958.583 408.599 973.227 393.955 991.292 393.955C1009.36 393.955 1024 408.599 1024 426.664Z" fill="black"/>
<defs>
<radialGradient id="paint0_radial_9_8794" cx="0" cy="0" r="1" gradientUnits="userSpaceOnUse" gradientTransform="translate(117.889 570.951) rotate(-90) scale(235.784 226.937)">
<stop stop-color="white" stop-opacity="0.55"/>
<stop offset="0.298077" stop-color="#EFFFDC" stop-opacity="0.7"/>
<stop offset="0.51" stop-color="#D2FFA5" stop-opacity="0.87"/>
<stop offset="0.649038" stop-color="#BEFF80" stop-opacity="0.9"/>
<stop offset="0.9" stop-color="#A3FE2D"/>
</radialGradient>
</defs>
</svg>
